<svg width="68" height="60" viewBox="0 0 68 60" fill="none" xmlns="http://www.w3.org/2000/svg">
<path d="M17.3261 29.1841L32.2752 52.6594L37.8883 2.50759H67.4779" stroke="#2D9CDB" stroke-opacity="0.9" stroke-width="5"/>
<path d="M3.67914 30.733C2.93956 30.733 2.33106 30.6488 1.85361 30.4802C1.37617 30.3024 1.0017 30.059 0.73021 29.75C0.458722 29.4411 0.266808 29.0807 0.154468 28.6688C0.0514894 28.2569 2.31669e-07 27.8075 2.31669e-07 27.3207C2.31669e-07 26.2628 0.299574 25.4249 0.89872 24.8071C1.50723 24.1892 2.40595 23.8803 3.59488 23.8803C4.28764 23.8803 4.84466 23.9739 5.26594 24.1611C5.69657 24.3484 6.01955 24.5964 6.23487 24.9054C6.45955 25.2143 6.60934 25.5513 6.68423 25.9164C6.76849 26.2722 6.81061 26.6232 6.81061 26.9696V27.6296C6.81061 27.6015 6.67955 27.5734 6.41742 27.5454C6.16466 27.5079 5.73402 27.4892 5.12551 27.4892H1.43234C1.43234 28.182 1.63829 28.7296 2.05021 29.1322C2.46212 29.5347 3.07531 29.736 3.88977 29.736C4.5919 29.736 5.16764 29.6517 5.617 29.4832C6.07572 29.3054 6.37998 29.1322 6.52976 28.9637V29.2445L6.67019 30.1713C6.46423 30.293 6.09913 30.4194 5.57487 30.5505C5.05998 30.6722 4.42807 30.733 3.67914 30.733ZM1.99404 26.5624H5.40636C5.40636 26.319 5.35487 26.0662 5.25189 25.8041C5.14892 25.542 4.96636 25.322 4.70424 25.1441C4.44211 24.9569 4.07233 24.8632 3.59488 24.8632C2.98637 24.8632 2.49957 25.0084 2.13446 25.2986C1.77872 25.5888 1.60085 25.9164 1.60085 26.2815C1.60085 26.3752 1.62893 26.4454 1.6851 26.4922C1.74127 26.539 1.84425 26.5624 1.99404 26.5624ZM8.86883 22.6726C8.59734 22.6726 8.3867 22.5977 8.23691 22.4479C8.08713 22.2888 8.01223 22.1062 8.01223 21.9003C8.01223 21.685 8.08245 21.5024 8.22287 21.3526C8.37266 21.2028 8.58798 21.1279 8.86883 21.1279C9.14968 21.1279 9.36031 21.2028 9.50074 21.3526C9.65052 21.5024 9.72542 21.685 9.72542 21.9003C9.72542 22.1062 9.65052 22.2888 9.50074 22.4479C9.35095 22.5977 9.14031 22.6726 8.86883 22.6726ZM8.01223 30.5926C8.07776 30.5926 8.13862 30.5271 8.19479 30.396C8.26032 30.2649 8.29308 30.0496 8.29308 29.75V24.8632C8.29308 24.5637 8.26032 24.353 8.19479 24.2313C8.13862 24.1003 8.07776 24.0301 8.01223 24.0207H9.72542V29.75C9.72542 30.0496 9.7535 30.2649 9.80967 30.396C9.8752 30.5271 9.94074 30.5926 10.0063 30.5926H8.01223ZM13.9457 30.733C13.2998 30.733 12.8317 30.5973 12.5415 30.3258C12.2513 30.0449 12.1062 29.5909 12.1062 28.9637V25.0037H10.8423V24.0207C11.273 24.0207 11.61 23.9692 11.8534 23.8662C12.0968 23.7539 12.27 23.562 12.373 23.2905C12.476 23.019 12.5274 22.6399 12.5274 22.153H13.5385V24.0207H16.2206C16.1551 24.1143 16.0896 24.2547 16.024 24.442C15.9679 24.6198 15.9398 24.8071 15.9398 25.0037H13.5385V28.753C13.5385 29.1837 13.6181 29.4551 13.7772 29.5675C13.9364 29.6798 14.1377 29.736 14.3811 29.736C14.7274 29.736 15.0411 29.633 15.3219 29.4271C15.6028 29.2211 15.804 29.0198 15.9257 28.8232V29.2585L16.0662 30.059C15.9257 30.2088 15.673 30.3585 15.3079 30.5083C14.9428 30.6581 14.4887 30.733 13.9457 30.733ZM19.6903 30.733C18.6699 30.733 17.9537 30.5505 17.5418 30.1854C17.1299 29.8109 16.924 29.31 16.924 28.6828C16.924 28.0275 17.172 27.5126 17.6682 27.1381C18.1644 26.7637 18.9227 26.5764 19.9431 26.5764C20.6733 26.5764 21.2584 26.6513 21.6984 26.8011C22.1384 26.9415 22.4333 27.0632 22.5831 27.1662C22.5737 26.333 22.4146 25.7432 22.1056 25.3969C21.8061 25.0411 21.2724 24.8632 20.5048 24.8632C19.9525 24.8632 19.4563 24.9288 19.0163 25.0598C18.5856 25.1815 18.2393 25.3173 17.9771 25.4671C17.715 25.6075 17.5512 25.7105 17.4857 25.776V25.4952L17.3452 24.442C17.4295 24.4045 17.612 24.3437 17.8929 24.2594C18.1737 24.1658 18.5435 24.0815 19.0022 24.0067C19.461 23.9224 19.9993 23.8803 20.6171 23.8803C21.7967 23.8803 22.658 24.133 23.201 24.6386C23.7439 25.1347 24.0154 25.9024 24.0154 26.9415V29.75C24.0154 30.0122 24.0435 30.2041 24.0997 30.3258C24.1652 30.4381 24.2307 30.5271 24.2963 30.5926H22.5831V30.1713L22.6112 29.9045L22.5831 29.8905C22.2741 30.1713 21.8716 30.3819 21.3754 30.5224C20.8793 30.6628 20.3176 30.733 19.6903 30.733ZM20.1537 29.736C20.912 29.736 21.5065 29.6283 21.9371 29.413C22.3678 29.1883 22.5831 28.9075 22.5831 28.5705C22.5831 28.2896 22.3958 28.0509 22.0214 27.8543C21.6563 27.6577 21.0852 27.5594 20.3082 27.5594C19.5873 27.5594 19.0771 27.653 18.7776 27.8403C18.4874 28.0275 18.3422 28.3083 18.3422 28.6828C18.3422 29.0479 18.4827 29.3147 18.7635 29.4832C19.0537 29.6517 19.5171 29.736 20.1537 29.736ZM28.884 33.71C28.9495 33.71 29.0104 33.6445 29.0665 33.5134C29.1321 33.3824 29.1648 33.167 29.1648 32.8675V24.8632C29.1648 24.5637 29.1321 24.353 29.0665 24.2313C29.0104 24.1003 28.9495 24.0301 28.884 24.0207H30.5972V24.3015L30.5691 24.5684L30.5972 24.5964C30.7844 24.4186 31.0653 24.2547 31.4397 24.105C31.8236 23.9552 32.2729 23.8803 32.7878 23.8803C33.6584 23.8803 34.3465 24.0347 34.8521 24.3437C35.3576 24.6432 35.718 25.0505 35.9333 25.5654C36.158 26.0803 36.2703 26.6654 36.2703 27.3207C36.2703 27.9666 36.1627 28.5471 35.9474 29.062C35.7321 29.5768 35.3716 29.9841 34.8661 30.2837C34.3606 30.5832 33.6678 30.733 32.7878 30.733C32.2729 30.733 31.8376 30.6722 31.4819 30.5505C31.1355 30.4288 30.8406 30.2602 30.5972 30.0449L30.5691 30.059L30.5972 30.3258V32.8675C30.5972 33.167 30.6253 33.3824 30.6814 33.5134C30.747 33.6445 30.8125 33.71 30.878 33.71H28.884ZM32.6474 29.736C33.2278 29.736 33.6772 29.6424 33.9955 29.4551C34.3138 29.2679 34.5338 28.9964 34.6555 28.6407C34.7772 28.2756 34.838 27.8356 34.838 27.3207C34.838 26.8058 34.7725 26.3658 34.6414 26.0007C34.5197 25.6356 34.2997 25.3547 33.9814 25.1581C33.6725 24.9615 33.2278 24.8632 32.6474 24.8632C32.0857 24.8632 31.655 24.9756 31.3555 25.2003C31.0653 25.4249 30.864 25.7245 30.7516 26.099C30.6487 26.4735 30.5972 26.8854 30.5972 27.3347C30.5972 27.7934 30.6533 28.2054 30.7657 28.5705C30.8874 28.9356 31.0933 29.2211 31.3836 29.4271C31.6831 29.633 32.1044 29.736 32.6474 29.736ZM40.8822 30.733C39.946 30.733 39.2112 30.5832 38.6775 30.2837C38.1533 29.9841 37.7835 29.5768 37.5682 29.062C37.3622 28.5471 37.2592 27.9666 37.2592 27.3207C37.2592 26.6654 37.3669 26.0803 37.5822 25.5654C37.8069 25.0505 38.1814 24.6432 38.7056 24.3437C39.2299 24.0347 39.9554 23.8803 40.8822 23.8803C41.809 23.8803 42.5345 24.0347 43.0588 24.3437C43.5831 24.6432 43.9528 25.0505 44.1682 25.5654C44.3928 26.0803 44.5052 26.6654 44.5052 27.3207C44.5052 27.9666 44.3975 28.5471 44.1822 29.062C43.9762 29.5768 43.6111 29.9841 43.0869 30.2837C42.5626 30.5832 41.8277 30.733 40.8822 30.733ZM40.8822 29.736C41.4626 29.736 41.912 29.6424 42.2303 29.4551C42.5486 29.2679 42.7686 28.9964 42.8903 28.6407C43.012 28.2756 43.0728 27.8356 43.0728 27.3207C43.0728 26.8058 43.0073 26.3658 42.8762 26.0007C42.7545 25.6356 42.5345 25.3547 42.2163 25.1581C41.9073 24.9615 41.4626 24.8632 40.8822 24.8632C40.3112 24.8632 39.8665 24.9662 39.5482 25.1722C39.2299 25.3688 39.0052 25.6543 38.8741 26.0288C38.7524 26.3939 38.6916 26.8292 38.6916 27.3347C38.6916 27.8309 38.7524 28.2615 38.8741 28.6266C38.9958 28.9824 39.2158 29.2585 39.5341 29.4551C39.8524 29.6424 40.3018 29.736 40.8822 29.736ZM45.6417 30.5926C45.7073 30.5926 45.7681 30.5271 45.8243 30.396C45.8898 30.2649 45.9226 30.0496 45.9226 29.75V25.0037C45.9226 24.7041 45.8898 24.4935 45.8243 24.3718C45.7681 24.2407 45.7073 24.1705 45.6417 24.1611C46.0537 24.1611 46.4094 24.133 46.709 24.0769C47.0179 24.0113 47.2332 23.9458 47.3549 23.8803V24.5824L47.3268 24.8211L47.3549 24.8492C47.5702 24.5777 47.8464 24.3484 48.1834 24.1611C48.5298 23.9739 48.9558 23.8803 49.4613 23.8803C49.9013 23.8803 50.2804 23.9458 50.5987 24.0769C50.9264 24.1986 51.1604 24.325 51.3009 24.456L51.02 25.6356V26.0569C50.8983 25.9071 50.7204 25.7526 50.4864 25.5935C50.2617 25.4249 50.0043 25.2845 49.7141 25.1722C49.4239 25.0598 49.1149 25.0037 48.7873 25.0037C48.4128 25.0037 48.0805 25.1535 47.7902 25.453C47.5 25.7526 47.3549 26.2488 47.3549 26.9415V29.75C47.3549 30.0496 47.383 30.2649 47.4392 30.396C47.5047 30.5271 47.5702 30.5926 47.6358 30.5926H45.6417ZM52.2242 30.5926C52.2897 30.5926 52.3505 30.5271 52.4067 30.396C52.4722 30.2649 52.505 30.0496 52.505 29.75V25.0037C52.505 24.7041 52.4722 24.4935 52.4067 24.3718C52.3505 24.2407 52.2897 24.1705 52.2242 24.1611C52.6361 24.1611 52.9918 24.133 53.2914 24.0769C53.6003 24.0113 53.8156 23.9458 53.9373 23.8803V24.5824L53.9093 24.8211L53.9373 24.8492C54.1527 24.5777 54.4288 24.3484 54.7659 24.1611C55.1122 23.9739 55.5382 23.8803 56.0437 23.8803C56.4837 23.8803 56.8629 23.9458 57.1812 24.0769C57.5088 24.1986 57.7429 24.325 57.8833 24.456L57.6024 25.6356V26.0569C57.4807 25.9071 57.3029 25.7526 57.0688 25.5935C56.8441 25.4249 56.5867 25.2845 56.2965 25.1722C56.0063 25.0598 55.6973 25.0037 55.3697 25.0037C54.9952 25.0037 54.6629 25.1535 54.3727 25.453C54.0825 25.7526 53.9373 26.2488 53.9373 26.9415V29.75C53.9373 30.0496 53.9654 30.2649 54.0216 30.396C54.0871 30.5271 54.1527 30.5926 54.2182 30.5926H52.2242ZM61.0636 30.733C60.0432 30.733 59.327 30.5505 58.9151 30.1854C58.5032 29.8109 58.2972 29.31 58.2972 28.6828C58.2972 28.0275 58.5453 27.5126 59.0415 27.1381C59.5376 26.7637 60.2959 26.5764 61.3164 26.5764C62.0466 26.5764 62.6317 26.6513 63.0717 26.8011C63.5117 26.9415 63.8066 27.0632 63.9563 27.1662C63.947 26.333 63.7878 25.7432 63.4789 25.3969C63.1793 25.0411 62.6457 24.8632 61.8781 24.8632C61.3257 24.8632 60.8295 24.9288 60.3895 25.0598C59.9589 25.1815 59.6125 25.3173 59.3504 25.4671C59.0883 25.6075 58.9244 25.7105 58.8589 25.776V25.4952L58.7185 24.442C58.8027 24.4045 58.9853 24.3437 59.2661 24.2594C59.547 24.1658 59.9168 24.0815 60.3755 24.0067C60.8342 23.9224 61.3725 23.8803 61.9904 23.8803C63.17 23.8803 64.0312 24.133 64.5742 24.6386C65.1172 25.1347 65.3887 25.9024 65.3887 26.9415V29.75C65.3887 30.0122 65.4168 30.2041 65.4729 30.3258C65.5385 30.4381 65.604 30.5271 65.6695 30.5926H63.9563V30.1713L63.9844 29.9045L63.9563 29.8905C63.6474 30.1713 63.2449 30.3819 62.7487 30.5224C62.2525 30.6628 61.6908 30.733 61.0636 30.733ZM61.527 29.736C62.2853 29.736 62.8798 29.6283 63.3104 29.413C63.741 29.1883 63.9563 28.9075 63.9563 28.5705C63.9563 28.2896 63.7691 28.0509 63.3946 27.8543C63.0295 27.6577 62.4585 27.5594 61.6815 27.5594C60.9606 27.5594 60.4504 27.653 60.1508 27.8403C59.8606 28.0275 59.7155 28.3083 59.7155 28.6828C59.7155 29.0479 59.8559 29.3147 60.1368 29.4832C60.427 29.6517 60.8904 29.736 61.527 29.736Z" fill="black"/>
</svg>
